HIERARCHY
ROOT Hips
{
	OFFSET -0.001795 -0.223333 0.028219
	CHANNELS 6 Xposition Yposition Zposition Zrotation Yrotation Xrotation 
	JOINT LeftUpLeg
	{
		OFFSET 0.069520 -0.091406 -0.006815
		CHANNELS 3 Zrotation Yrotation Xrotation
		JOINT LeftLeg
		{
			OFFSET 0.034277 -0.375199 -0.004496
			CHANNELS 3 Zrotation Yrotation Xrotation
			JOINT LeftFoot
			{
				OFFSET -0.013596 -0.397961 -0.043693
				CHANNELS 3 Zrotation Yrotation Xrotation
				JOINT LeftToe
				{
					OFFSET 0.026358 -0.055791 0.119288
					CHANNELS 3 Zrotation Yrotation Xrotation
					End Site
					{
						OFFSET 0.000000 0.000000 0.000000
					}
				}
			}
		}
	}
	JOINT RightUpLeg
	{
		OFFSET -0.067670 -0.090522 -0.004320
		CHANNELS 3 Zrotation Yrotation Xrotation
		JOINT RightLeg
		{
			OFFSET -0.038290 -0.382569 -0.008850
			CHANNELS 3 Zrotation Yrotation Xrotation
			JOINT RightFoot
			{
				OFFSET 0.015774 -0.398415 -0.042312
				CHANNELS 3 Zrotation Yrotation Xrotation
				JOINT RightToe
				{
					OFFSET -0.025372 -0.048144 0.123348
					CHANNELS 3 Zrotation Yrotation Xrotation
					End Site
					{
						OFFSET 0.000000 0.000000 0.000000
					}
				}
			}
		}
	}
	JOINT Spine
	{
		OFFSET -0.002533 0.108963 -0.026696
		CHANNELS 3 Zrotation Yrotation Xrotation
		JOINT Spine1
		{
			OFFSET 0.005487 0.135180 0.001092
			CHANNELS 3 Zrotation Yrotation Xrotation
			JOINT Spine2
			{
				OFFSET 0.001457 0.052922 0.025425
				CHANNELS 3 Zrotation Yrotation Xrotation
				JOINT Neck
				{
					OFFSET -0.002778 0.213870 -0.042857
					CHANNELS 3 Zrotation Yrotation Xrotation
					JOINT Head
					{
						OFFSET 0.005152 0.064970 0.051349
						CHANNELS 3 Zrotation Yrotation Xrotation
						End Site
						{
							OFFSET 0.000000 0.000000 0.000000
						}
					}
				}
				JOINT LeftShoulder
				{
					OFFSET 0.078845 0.121749 -0.034090
					CHANNELS 3 Zrotation Yrotation Xrotation
					JOINT LeftArm
					{
						OFFSET 0.090977 0.030469 -0.008868
						CHANNELS 3 Zrotation Yrotation Xrotation
						JOINT LeftForeArm
						{
							OFFSET 0.259612 -0.012772 -0.027456
							CHANNELS 3 Zrotation Yrotation Xrotation
							JOINT LeftHand
							{
								OFFSET 0.249234 0.008986 -0.001171
								CHANNELS 3 Zrotation Yrotation Xrotation
								End Site
								{
									OFFSET 0.000000 0.000000 0.000000
								}
							}
						}
					}
				}
				JOINT RightShoulder
				{
					OFFSET -0.081759 0.118833 -0.038615
					CHANNELS 3 Zrotation Yrotation Xrotation
					JOINT RightArm
					{
						OFFSET -0.096012 0.032551 -0.009143
						CHANNELS 3 Zrotation Yrotation Xrotation
						JOINT RightForeArm
						{
							OFFSET -0.253742 -0.013329 -0.021401
							CHANNELS 3 Zrotation Yrotation Xrotation
							JOINT RightHand
							{
								OFFSET -0.255298 0.007772 -0.005559
								CHANNELS 3 Zrotation Yrotation Xrotation
								End Site
								{
									OFFSET 0.000000 0.000000 0.000000
								}
							}
						}
					}
				}
			}
		}
	}
}
MOTION
Frames: 13
Frame Time: 0.050000
0.040417 0.694971 -0.364553 -3.234076 5.461480 6.048826 28.690275 4.412168 -39.127223 -2.086436 -3.064783 76.413997 6.755070 11.462676 -13.707231 0.000000 0.000000 0.000000 -22.409298 -8.890189 -64.849361 18.643236 -13.340527 64.932968 -10.143144 -23.848797 4.446400 0.000000 0.000000 0.000000 -1.249884 -3.437132 54.752518 4.011635 -0.195899 -24.590638 7.010573 9.321890 23.323247 -5.319014 5.361541 -45.312203 0.000000 0.000000 0.000000 -22.713472 -28.735004 11.990657 -42.870366 -45.620202 10.248765 24.814756 -40.329905 -7.770307 0.000000 0.000000 0.000000 -5.298996 40.755906 13.134521 12.248595 46.901182 2.062114 -25.379704 13.115257 -2.013451 0.000000 0.000000 0.000000 
0.051986 0.696910 -0.383359 -3.835241 5.205092 5.481963 28.181940 4.351636 -39.152492 -1.246928 -4.029187 78.240177 6.279641 10.244740 -13.084968 0.000000 0.000000 0.000000 -22.337792 -8.649270 -64.373385 18.220107 -12.651247 63.632154 -9.473633 -22.326552 7.008716 0.000000 0.000000 0.000000 -1.434785 -3.227522 54.202992 3.650092 -0.070352 -25.558710 7.634097 10.233013 25.060568 -5.120119 5.426233 -45.454045 0.000000 0.000000 0.000000 -20.654707 -28.579644 11.369323 -45.159507 -48.215614 11.795027 25.631565 -43.334311 -8.811846 0.000000 0.000000 0.000000 -9.014757 41.948482 11.741716 7.301702 46.450289 0.613368 -24.298398 10.501095 -1.453256 0.000000 0.000000 0.000000 
0.066566 0.697886 -0.402543 -4.168802 5.203960 4.747472 28.007149 4.349954 -39.348892 -1.942644 -3.600434 80.716179 6.252930 11.147771 -9.591947 0.000000 0.000000 0.000000 -22.884056 -8.921599 -63.863443 17.396667 -11.677113 62.219513 -8.719407 -20.753013 10.487089 0.000000 0.000000 0.000000 -1.840243 -2.935132 53.237115 3.622046 -0.089258 -25.152530 7.539369 11.244761 25.281645 -4.976327 5.455523 -46.200862 0.000000 0.000000 0.000000 -18.826900 -29.021855 11.057679 -47.510395 -50.336796 13.449244 26.350641 -46.655650 -10.053559 0.000000 0.000000 0.000000 -11.040770 43.043088 11.136136 2.291381 46.385135 -0.838902 -22.317258 8.725213 -1.042357 0.000000 0.000000 0.000000 
0.084887 0.702258 -0.422914 -4.811086 4.902771 4.040283 28.376823 4.442120 -38.473322 -2.644538 -2.806424 80.500381 6.899927 12.235773 -12.104512 0.000000 0.000000 0.000000 -23.694906 -8.917222 -61.927272 16.619612 -10.290898 58.320817 -7.923799 -19.308825 13.995045 0.000000 0.000000 0.000000 -2.662047 -2.363990 52.179324 3.309662 -0.025014 -25.262930 8.546736 12.419573 25.878983 -5.699860 5.840770 -45.885385 0.000000 0.000000 0.000000 -16.531239 -30.159849 11.136486 -48.608833 -52.536161 14.573940 29.048074 -46.244266 -11.271673 0.000000 0.000000 0.000000 -12.405247 43.947677 10.680929 0.268342 45.995613 -1.302546 -22.086240 8.213199 -0.945573 0.000000 0.000000 0.000000 
0.106730 0.708896 -0.445420 -5.510530 5.422003 3.441804 28.721053 4.367212 -38.080521 -4.799438 -0.863472 80.516817 7.396433 13.601217 -12.128211 0.000000 0.000000 0.000000 -23.790296 -8.909021 -60.270453 15.053800 -8.718775 54.891863 -7.694264 -18.868989 17.615636 0.000000 0.000000 0.000000 -3.327567 -2.127419 51.422539 4.091480 -0.196724 -25.196781 9.105981 12.778163 26.290580 -6.121813 6.005651 -46.492829 0.000000 0.000000 0.000000 -15.698381 -31.224819 11.440633 -46.833733 -55.591394 15.058791 27.840705 -42.026225 -9.662768 0.000000 0.000000 0.000000 -13.356991 45.387326 10.575707 -3.017474 46.204499 -2.287687 -21.601625 8.116460 -0.929401 0.000000 0.000000 0.000000 
0.130539 0.722251 -0.470702 -6.172142 6.008085 2.544733 27.854587 3.954371 -37.803352 -6.589934 0.572431 80.219985 8.015997 15.168751 -12.924343 0.000000 0.000000 0.000000 -24.946209 -9.242358 -57.249084 14.200960 -7.340724 48.715177 -6.383976 -16.989666 24.314348 0.000000 0.000000 0.000000 -4.369718 -1.729122 50.616769 5.557698 -0.677336 -23.063173 9.061768 13.590150 24.793188 -6.570306 6.205812 -46.533312 0.000000 0.000000 0.000000 -13.095914 -33.253583 11.882075 -41.079218 -58.655128 13.453049 26.117088 -36.167946 -7.725680 0.000000 0.000000 0.000000 -13.444142 45.287964 10.642143 -4.770021 47.896430 -2.818367 -22.802093 9.062652 -1.153390 0.000000 0.000000 0.000000 
0.153371 0.738205 -0.498063 -6.913826 6.476874 2.423461 27.135479 3.592005 -37.465308 -8.945374 2.670858 78.602124 8.873457 17.423369 -14.271187 0.000000 0.000000 0.000000 -25.613320 -9.557186 -56.031919 15.509227 -7.669556 45.227292 -7.211219 -18.140537 27.501478 0.000000 0.000000 0.000000 -6.572693 -0.741642 49.362218 8.564764 -1.473029 -22.631134 10.526308 13.880163 26.040728 -8.245608 6.788253 -46.755388 0.000000 0.000000 0.000000 -11.188652 -34.114790 11.956887 -32.791973 -61.392005 9.797078 25.221853 -29.707133 -5.995059 0.000000 0.000000 0.000000 -16.272635 46.245424 9.386988 -5.342693 50.493116 -2.914495 -25.959478 8.392107 -1.218821 0.000000 0.000000 0.000000 
0.172605 0.753601 -0.525047 -8.178667 6.584519 2.223790 26.759500 3.528687 -38.062158 -10.631338 4.245058 78.399133 9.822426 20.125615 -14.306427 0.000000 0.000000 0.000000 -24.613957 -9.187689 -56.589322 17.876898 -9.026286 45.056724 -8.019272 -19.186011 28.263528 0.000000 0.000000 0.000000 -7.377258 -0.401806 48.631627 10.742277 -2.102253 -22.130209 9.878671 13.171847 26.210727 -9.106195 6.959977 -47.287160 0.000000 0.000000 0.000000 -7.292703 -33.172877 11.203316 -21.751477 -62.531006 3.860791 24.101327 -23.906256 -4.534232 0.000000 0.000000 0.000000 -14.283389 47.003945 10.508484 -8.859023 53.896129 -4.857798 -29.513923 9.545168 -1.766688 0.000000 0.000000 0.000000 
0.188921 0.764943 -0.550370 -8.087619 6.035147 2.019112 25.896823 3.333032 -37.248867 -12.150950 5.676886 75.526783 9.950805 20.426657 -16.538153 0.000000 0.000000 0.000000 -22.093908 -7.828720 -57.994705 19.108278 -10.087170 47.234585 -8.245594 -19.551107 24.413755 0.000000 0.000000 0.000000 -8.658469 0.312135 48.322538 10.698424 -1.944802 -23.492526 10.091943 12.102657 27.502798 -9.782687 6.989519 -48.463120 0.000000 0.000000 0.000000 -3.647996 -32.964853 10.826791 -11.863619 -62.789438 -1.586753 23.714335 -17.415820 -3.211216 0.000000 0.000000 0.000000 -13.639225 46.854532 10.532691 -10.676808 58.729945 -6.527612 -32.337554 7.168116 -1.446722 0.000000 0.000000 0.000000 
0.204357 0.773294 -0.574502 -8.139624 5.630106 1.258104 24.612752 3.020602 -36.624203 -14.251314 7.429804 73.338348 11.023360 23.420290 -15.128343 0.000000 0.000000 0.000000 -19.151193 -5.878251 -56.888488 18.372740 -9.526777 46.666671 -8.704937 -20.190229 22.908822 0.000000 0.000000 0.000000 -9.158663 0.612615 47.727019 11.235558 -2.244702 -22.313823 8.129864 12.551447 26.633888 -7.178099 6.159866 -49.670360 0.000000 0.000000 0.000000 -2.189891 -32.828101 10.524215 -9.765809 -61.515105 -2.719988 23.559108 -14.803825 -2.758417 0.000000 0.000000 0.000000 -7.252384 46.729283 13.801079 -13.553634 60.032800 -8.675501 -32.760702 7.767353 -1.711639 0.000000 0.000000 0.000000 
0.220494 0.781226 -0.599360 -7.245649 5.875973 0.978550 22.614211 2.314361 -35.117215 -16.259748 8.579878 70.004236 11.566051 24.965797 -15.944198 0.000000 0.000000 0.000000 -17.760542 -4.985417 -55.235936 13.977078 -6.657399 44.169116 -6.701640 -17.330750 25.032583 0.000000 0.000000 0.000000 -9.752449 0.840374 47.478323 9.971151 -1.827377 -23.017723 8.592602 11.495224 26.675561 -6.430260 5.919560 -49.331928 0.000000 0.000000 0.000000 -3.030032 -33.740344 11.030454 -5.903784 -59.972096 -4.239901 22.427548 -11.988966 -2.103444 0.000000 0.000000 0.000000 -6.115181 45.043341 13.658367 -8.918318 60.385217 -6.595817 -32.482283 8.928683 -1.985860 0.000000 0.000000 0.000000 
0.237751 0.789582 -0.625839 -6.727739 6.537438 -0.166525 20.501640 1.614765 -34.232353 -17.504873 8.908758 68.149326 12.070693 25.931021 -13.482523 0.000000 0.000000 0.000000 -16.593841 -4.322716 -52.623999 10.781180 -4.728194 41.397578 -5.648770 -15.689732 24.730420 0.000000 0.000000 0.000000 -10.073681 0.808057 47.183283 9.592702 -1.810572 -22.398318 7.864263 10.785531 26.136193 -2.791032 4.731558 -50.776485 0.000000 0.000000 0.000000 -2.299089 -33.135809 10.697123 -7.337653 -58.970570 -3.359794 24.189123 -11.078961 -2.175287 0.000000 0.000000 0.000000 -4.978629 43.514009 13.624277 -5.402837 59.518819 -4.842117 -29.253399 8.675987 -1.707299 0.000000 0.000000 0.000000 
0.255603 0.799622 -0.652830 -6.713329 7.504834 -1.750467 18.045393 0.828154 -32.407605 -17.123434 7.717584 66.219461 11.946208 25.441898 -13.606600 0.000000 0.000000 0.000000 -17.259766 -4.450810 -48.306846 9.345493 -3.604440 35.468542 -4.195002 -13.635058 26.938600 0.000000 0.000000 0.000000 -10.274384 0.653227 45.051527 10.050389 -2.359026 -18.845816 7.724632 10.352136 24.036663 -2.954185 4.865716 -49.449582 0.000000 0.000000 0.000000 -6.098734 -33.003158 11.136252 -7.968878 -53.577448 -2.194241 24.724945 -14.961842 -3.065795 0.000000 0.000000 0.000000 -3.188154 42.252493 14.076257 -0.203447 54.177644 -2.199540 -28.936491 12.601836 -2.477886 0.000000 0.000000 0.000000 
